<svg id="Layer_1" data-name="Layer 1" xmlns="http://www.w3.org/2000/svg" viewBox="0 0 1910.27 345.5"><defs><style>.cls-1{fill:#fff;}.cls-2{fill:#52c0e8;}.cls-3{opacity:0.05;}.cls-4{fill:#010101;}.cls-5{fill:#ccd0d9;}.cls-6{fill:#e6e8eb;}.cls-7{fill:#f7ec13;}.cls-8{fill:#bfd854;}.cls-9{fill:#95c93d;}.cls-10{fill:#11a993;}.cls-11{fill:#198;}.cls-12{fill:#6fccdd;}</style></defs><title>EzzeGrocery2Artboard 1</title><path class="cls-1" d="M174.66,56c-.71-11-9.13-19.68-19.4-19.68h-.11a14.28,14.28,0,0,0-.4-5.26c-1.39-5.16-5.58-9.13-10.5-9.76a11.92,11.92,0,0,0-10.32,3.83,13.12,13.12,0,0,0-9.26-3.94c-7.68,0-13.92,6.78-13.92,15.13v.08c-9.33.75-16.69,9.2-16.69,19.57a20.4,20.4,0,0,0,.54,4.57c-11.14.5-20,10.42-20,22.62A24.15,24.15,0,0,0,77.4,94.45a17.5,17.5,0,0,0-.81,24.82c12.53-11.13,25.69,26.08,41.18,55.79,5.15,9.86,60.74-.64,65.18,5.48,5.05-4.93,8.32-90.84,8.44-98.38.23-12.1-6.84-22.44-16.73-26.21Zm0,0"/><path class="cls-1" d="M40.3,76.15a7.5,7.5,0,0,1-6.41-3.55c-4.57-7.46-13.17-16.1-23-15.76-4.22-.23-7.62-3.15-7.73-7.29a7.52,7.52,0,0,1,7.28-7.72c15.77-.48,29.24,11.53,36.27,22.9a7.56,7.56,0,0,1-2.46,10.33,7.28,7.28,0,0,1-3.91,1.09Zm0,0"/><path class="cls-1" d="M9.08,118.09l10.1,6a36.55,36.55,0,0,0,37.62,0l2.6-1.57a31.24,31.24,0,0,1,32.13,0l5.34,3.22a31,31,0,0,0,19,4.24c4.78-15.47,3.17-34.83-4.26-47.93C86.59,38,65.8,47,45.79,66.09a33,33,0,0,1-13.65,7.83C10.18,80.18-6,90.46,3.23,118.38a5.22,5.22,0,0,1,5.85-.29Zm0,0"/><path class="cls-1" d="M313.35,34.41l5-26.9L287.08.08,282,27s-26.9,34.82-28.39,42.71L233.68,176a4.05,4.05,0,0,0,2.77,4.78l63.44,15.06a3.63,3.63,0,0,0,4.26-3.11l20-106.29C325.59,78.52,313.35,34.41,313.35,34.41Z"/><polygon class="cls-2" points="251.09 83.29 321.4 99.98 309.85 161.47 239.54 144.78 251.09 83.29"/><g class="cls-3"><path class="cls-4" d="M241.51,177.83l20-106.29c1.48-7.89,28.39-42.71,28.39-42.71l5.05-26.89L287.08.08,282,27s-26.9,34.82-28.39,42.71L233.68,176a4.05,4.05,0,0,0,2.77,4.78l7.83,1.86A4.05,4.05,0,0,1,241.51,177.83Z"/></g><path class="cls-5" d="M283,22l.08,0a4,4,0,0,0,4.73-3.46,4.52,4.52,0,0,0-3.08-5.33h-.08Z"/><path class="cls-5" d="M314.28,29.47l1.65-8.78a4,4,0,0,0-4.74,3.47A4.5,4.5,0,0,0,314.28,29.47Z"/><path class="cls-6" d="M291.37,129.69c-1.37,7.28-7.74,11.93-14.23,10.39s-10.63-8.69-9.27-16,14.45-19.77,15.92-19.42S292.73,122.41,291.37,129.69Z"/><path class="cls-5" d="M318.48,7.53,287.16.1a4,4,0,0,0-4.74,3.46,4.51,4.51,0,0,0,3.09,5.32l31.32,7.43a4,4,0,0,0,4.74-3.45A4.53,4.53,0,0,0,318.48,7.53Z"/><path class="cls-7" d="M80.53,159.09a58.42,58.42,0,0,0,18.06-4.44,57.62,57.62,0,0,0,16.17-10.32,67,67,0,0,0,16.93-24.15c.25-.67.5-1.37.77-2.14a108.74,108.74,0,0,0,3.38-11.5c.22-.93.39-2,.58-3.2.52-3.35,1.22-7.76,3.73-11.69L138,78.52a19.82,19.82,0,0,1,.28-7.83,12.6,12.6,0,0,1,5.34-8,6,6,0,0,1,2.66-.86h.14c.21,0,1.42,0,3.16,0,.35-4.64.74-9.76.78-10.26-2-5.93-12.89-8.92-13.41-9.05-1.88.5-3.93,3.08-4.23,7.06l-1.27,16.83,0,0-.06,0h0a8.6,8.6,0,0,0-.91.54c-2.93,2-4.33,5.26-5.68,8.44-.49,1.15-1,2.34-1.57,3.42a107.31,107.31,0,0,1-6.42,10.77c-.5.73-1,1.39-1.4,2a67.72,67.72,0,0,1-24.52,20.18A62.62,62.62,0,0,1,45.43,115c-1-.29-2-.62-2.93-1s-2.38-.84-3.78-1.26a24.33,24.33,0,0,0-8.43-1.28,9.42,9.42,0,0,0-5,1.71,9.2,9.2,0,0,0-3,4c-2.73,6.66.1,11.74,3.56,16.22A56.68,56.68,0,0,0,36.37,144a74.69,74.69,0,0,0,23.7,12.18,68.07,68.07,0,0,0,20.46,2.94Zm0,0"/><path class="cls-7" d="M164.82,91.75S162,74.58,161.88,73.93c-2.45-3.82-9.1-4.65-12.7-4.8H149c-1.35-.05-2.24,0-2.24,0-2.37,1.45-2.9,5.43-2.44,8.2l2.74,16.63,0,0,0,0c-.22.22-.49.49-.75.8-2.35,2.8-2.92,6.42-3.48,9.92-.19,1.25-.4,2.55-.68,3.77a119,119,0,0,1-3.62,12.33c-.31.85-.58,1.62-.87,2.39a78.09,78.09,0,0,1-6,11.65l-.29.45c-.1.16-.2.32-.31.47A72.18,72.18,0,0,1,118.86,150a64.12,64.12,0,0,1-38.57,16.38c-1.39.1-2.79.15-4.2.16-1,0-2,0-3-.05s-2.49-.1-3.93-.09c-.8,0-1.66,0-2.55.09-3.67.25-7.86,1.19-10.3,4.36a10,10,0,0,0-1.92,4.78c-1,7.32,2.88,11.41,7.29,14.74a51.56,51.56,0,0,0,12.56,7.06,69.93,69.93,0,0,0,25.65,4.75c1.47,0,3-.07,4.41-.17a69,69,0,0,0,45.18-21.56C168.92,160.12,177,129.3,170.54,100a13,13,0,0,0-5.72-8.27Zm0,0"/><polygon class="cls-8" points="246.11 51.24 242.22 79.07 231.15 77.15 231.24 76.51 222.16 73.84 213.04 71.15 212.77 71.74 202.42 67.36 214.06 41.81 230.11 46.53 246.11 51.24"/><polygon class="cls-9" points="246.11 51.24 242.22 79.07 231.15 77.15 231.24 76.51 222.16 73.84 230.11 46.53 246.11 51.24"/><path class="cls-10" d="M246.09,84.94c2.26,7.56-1.61,19.79-7,36.72-5.54,17.47-12.43,39.21-12.69,58.73-.3,22.53-4.83,52.31-24.71,66.26a33.11,33.11,0,0,1-4.85,2.82,36.94,36.94,0,0,1-26.32,1.68h0c-11.08-3.26-19.77-10.79-23.83-20.68-9.27-22.53,2.88-50.07,14.7-69.21,10.24-16.58,16.09-38.63,20.79-56.34,4.55-17.17,7.84-29.57,13.8-34.71,11.49-9.91,24.7-5.63,28.39-4.14h0C228.36,66.82,241.74,70.4,246.09,84.94Z"/><path class="cls-11" d="M246.09,84.94c2.26,7.56-1.61,19.79-7,36.72-5.54,17.47-12.43,39.21-12.69,58.73-.3,22.53-4.83,52.31-24.71,66.26a33.11,33.11,0,0,1-4.85,2.82,36.94,36.94,0,0,1-26.32,1.68h0L224.42,66.08C228.36,66.82,241.74,70.4,246.09,84.94Z"/><path class="cls-12" d="M319.39,115.28,305.74,310.69A36.68,36.68,0,0,1,269.1,345.5H49.94a36.68,36.68,0,0,1-36.63-34.81L0,121.69a5.56,5.56,0,0,1,8.42-5l10.49,6.28a38,38,0,0,0,39.18,0l2.71-1.63a32.53,32.53,0,0,1,33.47,0l5.56,3.35a32.55,32.55,0,0,0,33.48,0l5.56-3.35a32.53,32.53,0,0,1,33.47,0l5.57,3.35a32.53,32.53,0,0,0,33.47,0l5.56-3.35a32.55,32.55,0,0,1,33.48,0l5.56,3.35a32.53,32.53,0,0,0,33.47,0l26.46-11.74a2.47,2.47,0,0,1,3.47,2.36Z"/><path class="cls-1" d="M110.46,249.85H43.26a9.61,9.61,0,1,1,0-19.21h67.2a9.61,9.61,0,0,1,0,19.21Zm0,0"/><path class="cls-1" d="M129.62,288.23H43.26a9.61,9.61,0,1,1,0-19.21h86.36a9.61,9.61,0,1,1,0,19.21Zm0,0"/><path class="cls-1" d="M1326,100.65q-1.59-6.2-5.33-8.39t-11.86-2.19h-21.18v66.66h19.78q9.65,0,13.13-2.6t5.27-8.63q1.77-6,1.77-24.1v-1.29Q1327.62,106.84,1326,100.65Zm109.84-4.49q-3.87-8.49-15.79-8.49t-16.49,8.74q-4.57,8.73-4.57,29.08v76q0,24.24,3.17,31t7,8.68a23.25,23.25,0,0,0,10.21,1.9q6.35,0,10.15-1.9t7-8.63q3.17-6.74,3.17-31.08V125.59Q1439.75,104.64,1435.88,96.16Zm0,0q-3.87-8.49-15.79-8.49t-16.49,8.74q-4.57,8.73-4.57,29.08v76q0,24.24,3.17,31t7,8.68a23.25,23.25,0,0,0,10.21,1.9q6.35,0,10.15-1.9t7-8.63q3.17-6.74,3.17-31.08V125.59Q1439.75,104.64,1435.88,96.16ZM1326,100.65q-1.59-6.2-5.33-8.39t-11.86-2.19h-21.18v66.66h19.78q9.65,0,13.13-2.6t5.27-8.63q1.77-6,1.77-24.1v-1.29Q1327.62,106.84,1326,100.65Zm0,0q-1.59-6.2-5.33-8.39t-11.86-2.19h-21.18v66.66h19.78q9.65,0,13.13-2.6t5.27-8.63q1.77-6,1.77-24.1v-1.29Q1327.62,106.84,1326,100.65Zm109.84-4.49q-3.87-8.49-15.79-8.49t-16.49,8.74q-4.57,8.73-4.57,29.08v76q0,24.24,3.17,31t7,8.68a23.25,23.25,0,0,0,10.21,1.9q6.35,0,10.15-1.9t7-8.63q3.17-6.74,3.17-31.08V125.59Q1439.75,104.64,1435.88,96.16Zm316.84,4.49q-1.59-6.2-5.33-8.39t-11.86-2.19h-21.18v66.66h19.79q9.63,0,13.13-2.6t5.26-8.63q1.77-6,1.78-24.1v-1.29Q1754.31,106.84,1752.72,100.65Zm0,0q-1.59-6.2-5.33-8.39t-11.86-2.19h-21.18v66.66h19.79q9.63,0,13.13-2.6t5.26-8.63q1.77-6,1.78-24.1v-1.29Q1754.31,106.84,1752.72,100.65Zm-316.84-4.49q-3.87-8.49-15.79-8.49t-16.49,8.74q-4.57,8.73-4.57,29.08v76q0,24.24,3.17,31t7,8.68a23.25,23.25,0,0,0,10.21,1.9q6.35,0,10.15-1.9t7-8.63q3.17-6.74,3.17-31.08V125.59Q1439.75,104.64,1435.88,96.16ZM1326,100.65q-1.59-6.2-5.33-8.39t-11.86-2.19h-21.18v66.66h19.78q9.65,0,13.13-2.6t5.27-8.63q1.77-6,1.77-24.1v-1.29Q1327.62,106.84,1326,100.65Zm0,0q-1.59-6.2-5.33-8.39t-11.86-2.19h-21.18v66.66h19.78q9.65,0,13.13-2.6t5.27-8.63q1.77-6,1.77-24.1v-1.29Q1327.62,106.84,1326,100.65Zm109.84-4.49q-3.87-8.49-15.79-8.49t-16.49,8.74q-4.57,8.73-4.57,29.08v76q0,24.24,3.17,31t7,8.68a23.25,23.25,0,0,0,10.21,1.9q6.35,0,10.15-1.9t7-8.63q3.17-6.74,3.17-31.08V125.59Q1439.75,104.64,1435.88,96.16Zm316.84,4.49q-1.59-6.2-5.33-8.39t-11.86-2.19h-21.18v66.66h19.79q9.63,0,13.13-2.6t5.26-8.63q1.77-6,1.78-24.1v-1.29Q1754.31,106.84,1752.72,100.65Zm0,0q-1.59-6.2-5.33-8.39t-11.86-2.19h-21.18v66.66h19.79q9.63,0,13.13-2.6t5.26-8.63q1.77-6,1.78-24.1v-1.29Q1754.31,106.84,1752.72,100.65Zm-316.84-4.49q-3.87-8.49-15.79-8.49t-16.49,8.74q-4.57,8.73-4.57,29.08v76q0,24.24,3.17,31t7,8.68a23.25,23.25,0,0,0,10.21,1.9q6.35,0,10.15-1.9t7-8.63q3.17-6.74,3.17-31.08V125.59Q1439.75,104.64,1435.88,96.16ZM1326,100.65q-1.59-6.2-5.33-8.39t-11.86-2.19h-21.18v66.66h19.78q9.65,0,13.13-2.6t5.27-8.63q1.77-6,1.77-24.1v-1.29Q1327.62,106.84,1326,100.65Zm-169.48-45a23.79,23.79,0,0,0-23.79,23.79v186.6a23.79,23.79,0,0,0,23.79,23.79h735.77a17.94,17.94,0,0,0,17.94-17.94V55.66Zm74,87.89h-19.28V116.41q0-15-3.8-21.85t-15.16-6.89q-11.36,0-16,8.94t-4.63,30.88v71.64q0,24.85,4.06,34.43t16,9.58q11.91,0,16-9.68t4.06-34.13V177.18h-19.15V164.51h37.92v88.81h-12.43l-2-10.18a29.92,29.92,0,0,1-11,9.18q-6.35,3-16.37,3-18.76,0-27.33-12.92t-8.56-42.16V129.08q0-27.24,6.85-37.91,9.88-15.67,32.59-15.67,14.6,0,22.33,4.49t10,9.78a61.79,61.79,0,0,1,5.14,18.81q.81,8.92.82,20.31Zm99.82,109.77q-2-3-2.41-11.33t-.38-26.59V196q0-18.36-2.85-23.35t-16.94-5l-20-1v86.62H1268.9V77.7h37.92q23,0,30.7,7.58a25.76,25.76,0,0,1,7.41,13.92q1.59,8.24,1.59,23.9t-4.63,25.59q-4.64,9.93-15.92,12.33a23.53,23.53,0,0,1,7.49,2.14,14.6,14.6,0,0,1,5.45,5.24q7.48,11.47,7.48,56.48,0,18.66.45,21.5a27.12,27.12,0,0,0,2.34,6.94Zm128.24-51.79q0,22.85-3.49,32.18t-7.8,13.32q-9.13,8.28-27.78,8.28-27.78,0-34.75-18.86-4.69-12.36-4.7-34.92V126.79q0-31.83,10.15-41.56t31.2-9.73q21.06,0,29,10.78a37.22,37.22,0,0,1,6.72,17,168.42,168.42,0,0,1,1.4,23.55Zm112-56.68h-19.15v-17q0-22.15-3-29.64t-8.63-9.48a20.52,20.52,0,0,0-7-1.1q-12.06,0-16.68,9.68t-4.63,30.44v70.45q0,25.44,4.06,35.17t16.23,9.73q12.18,0,15.92-9.68t3.74-35.12V184.27h19v14q0,23-3.3,33.17t-7.48,14.52q-8.88,9.39-27.53,9.38t-28-9.28q-11.54-11.37-11.54-47.59V128.49q0-31.93,10.21-42.46T1531.9,75.5q18.82,0,26.95,7.29,5.84,5.28,7.61,10.47,4.18,12.18,4.18,36.42Zm94-55.58h-40.08v68.65h37.67V170h-37.67v71.54h39.7v11.78h-58.6V77.7h59Zm92.47,164.05q-2-3-2.41-11.33t-.38-26.59V196q0-18.36-2.86-23.35t-16.93-5l-20-1v86.62h-18.9V77.7h37.92q23,0,30.7,7.58a25.77,25.77,0,0,1,7.42,13.92q1.59,8.24,1.59,23.9t-4.63,25.59q-4.63,9.93-15.92,12.33a23.47,23.47,0,0,1,7.48,2.14,14.52,14.52,0,0,1,5.45,5.24q7.48,11.47,7.49,56.48,0,18.66.44,21.5a27.2,27.2,0,0,0,2.35,6.94Zm95-77.14v77.14h-18.9v-77L1792.86,77.7h19l30.57,77.63h.38L1869,77.7h19.53Zm-97.79-56.07q0-13.27-1.59-19.46t-5.33-8.39q-3.73-2.19-11.86-2.19h-21.18v66.66h19.79q9.63,0,13.13-2.6t5.26-8.63q1.77-6,1.78-24.1ZM1420.09,87.67q-11.92,0-16.49,8.74T1399,125.49v76q0,24.24,3.17,31t7,8.68a23.25,23.25,0,0,0,10.21,1.9q6.35,0,10.15-1.9t7-8.63q3.17-6.74,3.17-31.08V125.59q0-21-3.87-29.43T1420.09,87.67Zm-92.47,32.44q0-13.27-1.58-19.46t-5.33-8.39q-3.75-2.19-11.86-2.19h-21.18v66.66h19.78q9.65,0,13.13-2.6t5.27-8.63q1.77-6,1.77-24.1ZM1326,100.65q-1.59-6.2-5.33-8.39t-11.86-2.19h-21.18v66.66h19.78q9.65,0,13.13-2.6t5.27-8.63q1.77-6,1.77-24.1v-1.29Q1327.62,106.84,1326,100.65Zm109.84-4.49q-3.87-8.49-15.79-8.49t-16.49,8.74q-4.57,8.73-4.57,29.08v76q0,24.24,3.17,31t7,8.68a23.25,23.25,0,0,0,10.21,1.9q6.35,0,10.15-1.9t7-8.63q3.17-6.74,3.17-31.08V125.59Q1439.75,104.64,1435.88,96.16Zm316.84,4.49q-1.59-6.2-5.33-8.39t-11.86-2.19h-21.18v66.66h19.79q9.63,0,13.13-2.6t5.26-8.63q1.77-6,1.78-24.1v-1.29Q1754.31,106.84,1752.72,100.65Zm0,0q-1.59-6.2-5.33-8.39t-11.86-2.19h-21.18v66.66h19.79q9.63,0,13.13-2.6t5.26-8.63q1.77-6,1.78-24.1v-1.29Q1754.31,106.84,1752.72,100.65Zm-316.84-4.49q-3.87-8.49-15.79-8.49t-16.49,8.74q-4.57,8.73-4.57,29.08v76q0,24.24,3.17,31t7,8.68a23.25,23.25,0,0,0,10.21,1.9q6.35,0,10.15-1.9t7-8.63q3.17-6.74,3.17-31.08V125.59Q1439.75,104.64,1435.88,96.16ZM1326,100.65q-1.59-6.2-5.33-8.39t-11.86-2.19h-21.18v66.66h19.78q9.65,0,13.13-2.6t5.27-8.63q1.77-6,1.77-24.1v-1.29Q1327.62,106.84,1326,100.65Zm0,0q-1.59-6.2-5.33-8.39t-11.86-2.19h-21.18v66.66h19.78q9.65,0,13.13-2.6t5.27-8.63q1.77-6,1.77-24.1v-1.29Q1327.62,106.84,1326,100.65Zm109.84-4.49q-3.87-8.49-15.79-8.49t-16.49,8.74q-4.57,8.73-4.57,29.08v76q0,24.24,3.17,31t7,8.68a23.25,23.25,0,0,0,10.21,1.9q6.35,0,10.15-1.9t7-8.63q3.17-6.74,3.17-31.08V125.59Q1439.75,104.64,1435.88,96.16Zm0,0q-3.87-8.49-15.79-8.49t-16.49,8.74q-4.57,8.73-4.57,29.08v76q0,24.24,3.17,31t7,8.68a23.25,23.25,0,0,0,10.21,1.9q6.35,0,10.15-1.9t7-8.63q3.17-6.74,3.17-31.08V125.59Q1439.75,104.64,1435.88,96.16ZM1326,100.65q-1.59-6.2-5.33-8.39t-11.86-2.19h-21.18v66.66h19.78q9.65,0,13.13-2.6t5.27-8.63q1.77-6,1.77-24.1v-1.29Q1327.62,106.84,1326,100.65Zm0,0q-1.59-6.2-5.33-8.39t-11.86-2.19h-21.18v66.66h19.78q9.65,0,13.13-2.6t5.27-8.63q1.77-6,1.77-24.1v-1.29Q1327.62,106.84,1326,100.65Zm0,0q-1.59-6.2-5.33-8.39t-11.86-2.19h-21.18v66.66h19.78q9.65,0,13.13-2.6t5.27-8.63q1.77-6,1.77-24.1v-1.29Q1327.62,106.84,1326,100.65Z"/><path class="cls-1" d="M490.81,248.73a9,9,0,0,1,8.88,8.88V281a9,9,0,0,1-8.88,8.88H346.43a9,9,0,0,1-8.88-8.88V68.5a9,9,0,0,1,8.88-8.88H488.18a9,9,0,0,1,8.88,8.88V91.86a9,9,0,0,1-8.88,8.87H382V153h99a9,9,0,0,1,8.88,8.88v23.35a9,9,0,0,1-8.88,8.88H382v54.59Z"/><path class="cls-1" d="M701.62,248.73a9,9,0,0,1,8.88,8.88V281a9,9,0,0,1-8.88,8.88H536.85A9,9,0,0,1,528,281V257.61a12.55,12.55,0,0,1,1.81-7.23c1.2-1.76,2.24-3.18,3.12-4.28L649.65,100.73H540.14a9,9,0,0,1-8.88-8.87V68.5a9,9,0,0,1,8.88-8.88H698.33a9,9,0,0,1,8.88,8.88V91.86a14.71,14.71,0,0,1-4.28,10.85l-117.08,146Z"/><path class="cls-1" d="M910.46,248.73a9,9,0,0,1,8.88,8.88V281a9,9,0,0,1-8.88,8.88H745.69a9,9,0,0,1-8.88-8.88V257.61a12.63,12.63,0,0,1,1.8-7.23c1.21-1.76,2.25-3.18,3.13-4.28L858.49,100.73H749a9,9,0,0,1-8.87-8.87V68.5A9,9,0,0,1,749,59.62h158.2a9,9,0,0,1,8.88,8.88V91.86a14.71,14.71,0,0,1-4.28,10.85l-117.08,146Z"/><path class="cls-1" d="M1111.4,248.73a9,9,0,0,1,8.88,8.88V281a9,9,0,0,1-8.88,8.88H967a9,9,0,0,1-8.88-8.88V68.5A9,9,0,0,1,967,59.62h141.75a9,9,0,0,1,8.88,8.88V91.86a9,9,0,0,1-8.88,8.87H1002.54V153h99a9,9,0,0,1,8.88,8.88v23.35a9,9,0,0,1-8.88,8.88h-99v54.59Z"/></svg>